<?xml version="1.0" standalone="no"?>
<!DOCTYPE svg PUBLIC "-//W3C//DTD SVG 20010904//EN"
 "http://www.w3.org/TR/2001/REC-SVG-20010904/DTD/svg10.dtd">
<svg version="1.0" xmlns="http://www.w3.org/2000/svg"
 width="32.000000pt" height="32.000000pt" viewBox="0 0 32.000000 32.000000"
 preserveAspectRatio="xMidYMid meet">

<g transform="translate(0.000000,32.000000) scale(0.100000,-0.100000)"
fill="#000000" stroke="none">
<path d="M137 292 c-29 -32 -21 -69 20 -91 56 -29 112 48 67 93 -21 22 -67 20
-87 -2z m64 -2 c23 -13 25 -52 4 -70 -12 -10 -21 -10 -40 -2 -30 14 -34 56 -7
71 21 13 20 13 43 1z"/>
<path d="M223 188 c-33 -58 -65 -85 -111 -94 -27 -6 -30 -3 -53 53 -28 70 -37
51 -12 -27 l18 -55 49 -3 c27 -2 54 2 59 7 8 8 1 11 -23 11 -34 1 -34 1 15 19
28 10 58 21 68 26 11 5 17 3 18 -6 0 -8 9 -32 20 -54 l19 -40 -6 55 c-3 30
-11 79 -18 109 l-12 54 -31 -55z"/>
</g>
</svg>
